<?xml version="1.0" encoding="UTF-8"?>
<svg version="1.1" xmlns="http://www.w3.org/2000/svg" width="435" height="282">
<path d="M0 0 C143.55 0 287.1 0 435 0 C435 93.06 435 186.12 435 282 C291.45 282 147.9 282 0 282 C0 188.94 0 95.88 0 0 Z " fill="#7569E7" transform="translate(0,0)"/>
<path d="M0 0 C1.33723114 -0.00810448 1.33723114 -0.00810448 2.70147705 -0.01637268 C5.64767681 -0.02887777 8.59290276 -0.01235705 11.5390625 0.00561523 C13.5864263 0.00546029 15.6337904 0.00397203 17.68115234 0.00120544 C21.9718116 -0.00017935 26.26213691 0.01239311 30.55273438 0.03515625 C36.05427897 0.06354095 41.55526859 0.06080455 47.05685425 0.04806614 C51.2844721 0.04111321 55.51196153 0.04889386 59.73956299 0.06132317 C61.76816312 0.06584141 63.79677703 0.06617122 65.82537842 0.06225777 C68.65991503 0.05934937 71.4936852 0.07583489 74.328125 0.09765625 C75.16772766 0.0931546 76.00733032 0.08865295 76.87237549 0.08401489 C80.19779805 0.12657916 82.69405334 0.24917066 85.65380859 1.83946228 C88.86539042 5.3742595 88.37860244 9.76064865 88.48046875 14.26342773 C88.50143112 15.03850677 88.52239349 15.81358582 88.54399109 16.6121521 C88.61037596 19.137734 88.66925468 21.66340571 88.7265625 24.18920898 C88.74674438 25.04441132 88.76692627 25.89961365 88.78771973 26.7807312 C88.90791853 31.91055835 89.01651354 37.04053217 89.11724854 42.17077637 C89.16004521 44.30168259 89.20692908 46.43244843 89.25537109 48.56323242 C89.32600434 51.89694183 89.37545668 55.22999708 89.4140625 58.56420898 C89.4354126 59.51835693 89.4567627 60.47250488 89.47875977 61.45556641 C89.50300414 66.22906398 89.50865813 69.77175777 86.1640625 73.50170898 C76.66781058 77.97051496 64.91641296 76.66435579 54.671875 76.66967773 C53.1941627 76.67290144 51.71645069 76.67626629 50.23873901 76.67976379 C47.15768698 76.68571192 44.07666282 76.6876081 40.99560547 76.68701172 C37.08370663 76.68691017 33.17198959 76.70057405 29.26013374 76.71778393 C26.21258757 76.72900089 23.16508407 76.730928 20.11751938 76.73040199 C18.67689257 76.73156711 17.23626411 76.73590423 15.79565811 76.74373436 C-7.78325247 76.85994102 -7.78325247 76.85994102 -12.62985229 73.1158905 C-15.62826744 69.10291837 -14.98624302 64.38636646 -14.9609375 59.62670898 C-14.95827881 58.71848389 -14.95562012 57.81025879 -14.95288086 56.87451172 C-14.89953888 48.76720663 -14.66960683 40.66683234 -14.3984375 32.56420898 C-14.35928223 31.38165527 -14.32012695 30.19910156 -14.27978516 28.98071289 C-14.1527851 25.48650826 -13.99534253 21.99456868 -13.8359375 18.50170898 C-13.79710449 17.23053223 -13.75827148 15.95935547 -13.71826172 14.6496582 C-13.66299316 13.4032959 -13.60772461 12.15693359 -13.55078125 10.87280273 C-13.50945068 9.74672607 -13.46812012 8.62064941 -13.42553711 7.46044922 C-11.93558111 -0.01647696 -6.61692807 -0.07619349 0 0 Z " fill="#F0F2F6" transform="translate(179.8359375,72.498291015625)"/>
<path d="M0 0 C27.72 0 55.44 0 84 0 C83.07795562 3.68817754 82.17003506 5.59179994 80.15625 8.7109375 C79.5684375 9.62746094 78.980625 10.54398438 78.375 11.48828125 C77.75625 12.44089844 77.1375 13.39351562 76.5 14.375 C75.9121875 15.28894531 75.324375 16.20289062 74.71875 17.14453125 C73.48650646 19.05928899 72.23589794 20.96232553 70.96923828 22.85449219 C69.52068774 25.16829397 68.3231328 27.33573433 67.15185547 29.77832031 C62.57173038 38.83509969 62.57173038 38.83509969 58.14440918 40.84051514 C52.85738362 42.27930572 47.56058227 42.19764392 42.125 42 C41.30952698 41.98905304 40.49405396 41.97810608 39.65386963 41.96682739 C26.7733528 41.70268769 26.7733528 41.70268769 21.41601562 38.41357422 C17.57464701 34.40863636 15.75337101 29.63337478 13.95996094 24.45507812 C12.40025838 20.46617453 9.9764439 17.15513684 7.5 13.6875 C0 2.69895711 0 2.69895711 0 0 Z " fill="#7A70E8" transform="translate(175,79)"/>
<path d="M0 0 C2 0 2 0 4 1.9375 C4.99 2.9584375 4.99 2.9584375 6 4 C9.01738114 5.50869057 12.14604173 5.18351891 15.45703125 5.203125 C16.56699715 5.21167511 16.56699715 5.21167511 17.6993866 5.22039795 C19.26710581 5.22985018 20.83484491 5.23638282 22.40258789 5.24023438 C24.79283707 5.24992032 27.18221905 5.28093195 29.57226562 5.3125 C31.09634907 5.31903223 32.62043865 5.32428184 34.14453125 5.328125 C34.85615921 5.3404718 35.56778717 5.3528186 36.30097961 5.36553955 C40.70935502 5.3459068 43.49624982 4.71380627 47 2 C47.33 1.34 47.66 0.68 48 0 C51.67754951 1.48736447 53.47243216 3.50841601 55.875 6.625 C56.56335938 7.511875 57.25171875 8.39875 57.9609375 9.3125 C58.63382812 10.199375 59.30671875 11.08625 60 12 C60.61101562 12.804375 61.22203125 13.60875 61.8515625 14.4375 C63.24375752 16.28496258 64.62705774 18.13820708 66 20 C60.56467209 25.43532791 45.69065787 23.12499885 38.35028076 23.13812256 C36.30773784 23.13717867 34.26519508 23.13456721 32.22265625 23.13037109 C29.16661475 23.12507216 26.11072418 23.13030886 23.0546875 23.13671875 C9.67751036 23.1407619 -3.64288056 22.72222878 -17 22 C-17 21.34 -17 20.68 -17 20 C-16.34 20 -15.68 20 -15 20 C-14.73123047 19.42024414 -14.46246094 18.84048828 -14.18554688 18.24316406 C-12.13862286 14.37019498 -9.257788 11.13591759 -6.5 7.75 C-5.90574219 7.00492187 -5.31148437 6.25984375 -4.69921875 5.4921875 C-4.12816406 4.78835937 -3.55710938 4.08453125 -2.96875 3.359375 C-2.44732422 2.71452148 -1.92589844 2.06966797 -1.38867188 1.40527344 C-0.93041016 0.9415332 -0.47214844 0.47779297 0 0 Z " fill="#7A6FE8" transform="translate(192,120)"/>
<path d="M0 0 C22.13274336 0 22.13274336 0 27.70703125 4.32421875 C29.38258641 6.49585973 29.37136768 7.78303033 29.3125 10.5 C29.30863281 11.2734375 29.30476563 12.046875 29.30078125 12.84375 C29 15 29 15 27 18 C26.34 18 25.68 18 25 18 C25 18.66 25 19.32 25 20 C25.61875 20.268125 26.2375 20.53625 26.875 20.8125 C29 22 29 22 31 25 C31.51152843 28.83646321 31.1457631 30.71408007 29.375 34.1875 C26.25463837 37.88266509 23.46892746 39.76204588 18.54541016 40.23657227 C15.73086862 40.29481981 12.93943404 40.26128911 10.125 40.1875 C6.78375 40.125625 3.4425 40.06375 0 40 C0 26.8 0 13.6 0 0 Z " fill="#EFF1F6" transform="translate(209,167)"/>
<path d="M0 0 C2.31 0.33 4.62 0.66 7 1 C6.25 7.75 6.25 7.75 4 10 C4.33 10.66 4.66 11.32 5 12 C5.41204834 16.63554388 4.87454146 19.30416098 2 23 C-1.32291962 25.12968939 -4.35667756 25.37108767 -8.25 25.625 C-9.32765625 25.69976562 -10.4053125 25.77453125 -11.515625 25.8515625 C-12.74539063 25.92503906 -12.74539063 25.92503906 -14 26 C-14 26.33 -14 26.66 -14 27 C-12.58847656 27.14695313 -12.58847656 27.14695313 -11.1484375 27.296875 C1.41188738 28.80515418 1.41188738 28.80515418 6 33 C7.44430855 35.88861709 7.37688506 37.79647701 7 41 C3.52497011 45.24725875 0.45543735 47.72717363 -5.0234375 48.3359375 C-16.12868801 48.46536932 -16.12868801 48.46536932 -21 44 C-21.33 43.67 -21.66 43.34 -22 43 C-21.69699525 40.66253478 -21.36141955 38.32914823 -21 36 C-21 35.01 -21 34.02 -21 33 C-21.33 32.67 -21.66 32.34 -22 32 C-22.35526316 26.67105263 -22.35526316 26.67105263 -20.875 23.875 C-20.58625 23.25625 -20.2975 22.6375 -20 22 C-20.63040043 20.64914193 -21.30251417 19.31747324 -22 18 C-22.4829824 14.21663788 -22.32378574 12.52765083 -20.3125 9.25 C-15.93736971 4.99311647 -12.04152963 4.78126924 -6.18359375 4.83203125 C-4.0195376 4.99849711 -2.0846281 5.40911902 0 6 C0 4.02 0 2.04 0 0 Z " fill="#EFF1F6" transform="translate(314,173)"/>
<path d="M0 0 C8.58 0 17.16 0 26 0 C26 2.97 26 5.94 26 9 C20.72 9 15.44 9 10 9 C10 11.31 10 13.62 10 16 C14.29 16 18.58 16 23 16 C23 18.64 23 21.28 23 24 C18.71 24 14.42 24 10 24 C10 26.31 10 28.62 10 31 C15.28 31 20.56 31 26 31 C26 33.97 26 36.94 26 40 C17.42 40 8.84 40 0 40 C0 26.8 0 13.6 0 0 Z " fill="#EEF1F6" transform="translate(86,167)"/>
<path d="M0 0 C3.39518445 2.36873334 4.90830689 4.11132227 6.6875 7.875 C7.68181188 13.93218563 6.76454669 18.8313836 4.05078125 24.28125 C1.48293196 27.28320562 -1.63996646 27.77988574 -5.43359375 28.31640625 C-14.21991001 28.63722581 -14.21991001 28.63722581 -17.45703125 26.37890625 C-21.40156647 21.76255238 -22.60864142 18.26922749 -22.53125 12.26171875 C-22.11569401 7.72770611 -20.69678746 4.1727695 -17.3125 1 C-11.83227044 -2.08262913 -5.84076496 -1.98365602 0 0 Z " fill="#EFF1F6" transform="translate(281.3125,179.125)"/>
<path d="M0 0 C3.63 0 7.26 0 11 0 C12.65 4.62 14.3 9.24 16 14 C16.9590625 10.8134375 16.9590625 10.8134375 17.9375 7.5625 C19.875 1.125 19.875 1.125 21 0 C22.68608966 -0.07205511 24.37500659 -0.08386068 26.0625 -0.0625 C26.98160156 -0.05347656 27.90070313 -0.04445312 28.84765625 -0.03515625 C29.55792969 -0.02355469 30.26820313 -0.01195312 31 0 C29.90000272 3.18895396 28.79424309 6.37588156 27.6875 9.5625 C27.37876953 10.45775391 27.07003906 11.35300781 26.75195312 12.27539062 C25.38804979 16.19481809 24.01385499 20.06949402 22.328125 23.86328125 C21.19340395 26.54322537 20.52329663 28.77738037 20.0625 31.625 C19.24937152 35.62914528 17.94109737 38.05890263 15 41 C11.81225917 42.59387042 8.46072041 42.52663137 5 42 C2.5 40 2.5 40 1 38 C2.125 35.5 2.125 35.5 4 33 C7.1875 32.6875 7.1875 32.6875 10 33 C12.27395468 25.60700316 8.84169168 20.31329116 5.5625 13.6875 C4.51928978 11.52611074 3.47877894 9.36341583 2.44140625 7.19921875 C1.74059937 5.77355591 1.74059937 5.77355591 1.02563477 4.3190918 C0 2 0 2 0 0 Z " fill="#EFF2F6" transform="translate(174,179)"/>
<path d="M0 0 C3.43919364 2.93342987 4.96343641 5.60577723 5.56640625 10.109375 C5.60636719 11.24890625 5.64632812 12.3884375 5.6875 13.5625 C5.7691097 16.9328138 5.7691097 16.9328138 6.125 19.8125 C6.785 20.1425 7.445 20.4725 8.125 20.8125 C7.465 23.1225 6.805 25.4325 6.125 27.8125 C2.17772412 27.99192163 -0.4730513 27.90600689 -3.875 25.8125 C-4.865 26.4725 -5.855 27.1325 -6.875 27.8125 C-9.25 28.11328125 -9.25 28.11328125 -11.875 28.125 C-13.174375 28.15013672 -13.174375 28.15013672 -14.5 28.17578125 C-16.875 27.8125 -16.875 27.8125 -18.65625 26.5703125 C-20.60782397 23.75554235 -20.40380601 21.30740495 -20.30078125 17.97265625 C-19.875 15.8125 -19.875 15.8125 -17.5625 13.3125 C-13.15481348 10.8523959 -9.8637051 10.71837349 -4.875 10.8125 C-5.205 9.4925 -5.535 8.1725 -5.875 6.8125 C-7.195 6.8125 -8.515 6.8125 -9.875 6.8125 C-10.205 7.4725 -10.535 8.1325 -10.875 8.8125 C-13.845 8.4825 -16.815 8.1525 -19.875 7.8125 C-19.8125 5.5625 -19.8125 5.5625 -18.875 2.8125 C-13.00802861 -1.70995712 -6.96309698 -2.8760618 0 0 Z " fill="#EDEFF6" transform="translate(136.875,179.1875)"/>
<path d="M0 0 C2.5625 1.5625 2.5625 1.5625 3.5625 2.5625 C3.60313832 4.22867115 3.605221 5.89638095 3.5625 7.5625 C-0.8925 8.0575 -0.8925 8.0575 -5.4375 8.5625 C-5.7675 7.9025 -6.0975 7.2425 -6.4375 6.5625 C-7.4275 6.5625 -8.4175 6.5625 -9.4375 6.5625 C-9.4375 7.2225 -9.4375 7.8825 -9.4375 8.5625 C-8.76203125 8.73265625 -8.0865625 8.9028125 -7.390625 9.078125 C2.10880552 11.65889514 2.10880552 11.65889514 4.5625 15.5625 C5.04249279 19.40244229 4.92311737 22.41501017 2.5625 25.5625 C-1.17508257 27.40813812 -4.29048899 27.85913134 -8.4375 27.875 C-9.448125 27.89175781 -10.45875 27.90851563 -11.5 27.92578125 C-14.87093876 27.50889654 -16.74205738 26.60464863 -19.4375 24.5625 C-20.25 21.875 -20.25 21.875 -20.4375 19.5625 C-17.4675 19.2325 -14.4975 18.9025 -11.4375 18.5625 C-11.1075 19.2225 -10.7775 19.8825 -10.4375 20.5625 C-9.1175 20.5625 -7.7975 20.5625 -6.4375 20.5625 C-6.4375 19.9025 -6.4375 19.2425 -6.4375 18.5625 C-7.04078125 18.39234375 -7.6440625 18.2221875 -8.265625 18.046875 C-17.06534701 15.3785722 -17.06534701 15.3785722 -19.4375 11.5625 C-20.03923122 8.75634959 -20.11508713 6.35898247 -19.4375 3.5625 C-14.03201911 -2.13516905 -7.05494242 -2.95024865 0 0 Z " fill="#EEF1F6" transform="translate(167.4375,179.4375)"/>
<path d="M0 0 C2.5 1.875 2.5 1.875 3.375 5.0625 C3.41625 5.990625 3.4575 6.91875 3.5 7.875 C-0.955 8.37 -0.955 8.37 -5.5 8.875 C-5.83 8.215 -6.16 7.555 -6.5 6.875 C-8.52463255 6.22286708 -8.52463255 6.22286708 -10.5 5.875 C-10.17 6.865 -9.84 7.855 -9.5 8.875 C-6.77282103 10.04315646 -4.000791 10.85035261 -1.1640625 11.71484375 C1.83556812 13.0211345 2.94531942 14.02120277 4.5 16.875 C4.37655181 20.39327355 4.23585873 22.87155627 2.125 25.75 C-1.34447116 28.15194157 -4.78611105 28.09861111 -8.875 28.1875 C-9.99648438 28.22488281 -11.11796875 28.26226562 -12.2734375 28.30078125 C-16.18764076 27.78425806 -17.81914528 26.74160683 -20.5 23.875 C-20.5 22.555 -20.5 21.235 -20.5 19.875 C-17.53 19.545 -14.56 19.215 -11.5 18.875 C-11.17 19.535 -10.84 20.195 -10.5 20.875 C-9.18 20.875 -7.86 20.875 -6.5 20.875 C-6.5 20.215 -6.5 19.555 -6.5 18.875 C-7.65628906 18.49408203 -7.65628906 18.49408203 -8.8359375 18.10546875 C-9.83882813 17.76128906 -10.84171875 17.41710937 -11.875 17.0625 C-12.87273437 16.72605469 -13.87046875 16.38960937 -14.8984375 16.04296875 C-17.5 14.875 -17.5 14.875 -19.5 11.875 C-20.17540029 4.78329694 -20.17540029 4.78329694 -17.6875 1.4375 C-12.38163737 -2.35240188 -5.97317442 -1.91994892 0 0 Z " fill="#F0F1F6" transform="translate(343.5,179.125)"/>
<path d="M0 0 C0.33 0 0.66 0 1 0 C1.29098388 4.15812865 1.57545764 8.31664238 1.85449219 12.47558594 C1.94980839 13.8835789 2.0467528 15.2914628 2.14550781 16.69921875 C2.80738622 26.15462451 3.13407215 35.51625724 3 45 C-0.95240593 41.14274459 -4.63681906 37.1130265 -8.25 32.9375 C-8.79140625 32.32583984 -9.3328125 31.71417969 -9.890625 31.08398438 C-10.40625 30.48779297 -10.921875 29.89160156 -11.453125 29.27734375 C-11.91879883 28.74359131 -12.38447266 28.20983887 -12.86425781 27.65991211 C-14.21015021 25.69286086 -14.78066353 24.38132703 -15 22 C-14.05957031 19.95703125 -14.05957031 19.95703125 -12.578125 17.8125 C-12.04703125 17.03132813 -11.5159375 16.25015625 -10.96875 15.4453125 C-10.4015625 14.63835937 -9.834375 13.83140625 -9.25 13 C-8.69828125 12.19304687 -8.1465625 11.38609375 -7.578125 10.5546875 C-2.48240432 3.13159439 -2.48240432 3.13159439 0 0 Z " fill="#7F75E9" transform="translate(260,91)"/>
<path d="M0 0 C3.71456189 4.4937139 7.0665311 9.20466625 10.375 14 C10.94605469 14.7940625 11.51710937 15.588125 12.10546875 16.40625 C16.11082672 22.25348792 16.11082672 22.25348792 15.5859375 25.7890625 C13.9101642 28.12523906 12.21072506 30.26988046 10.25 32.375 C7.62698183 35.2273531 5.05105528 38.09190011 2.5625 41.0625 C1.2940625 42.5165625 1.2940625 42.5165625 0 44 C-0.33 44 -0.66 44 -1 44 C-1.02500545 39.50171257 -1.04300224 35.00346362 -1.05493164 30.50512695 C-1.05991292 28.97972914 -1.06670038 27.45433599 -1.07543945 25.92895508 C-1.12398826 17.22729551 -1.0402367 8.65612974 0 0 Z " fill="#786DE8" transform="translate(173,90)"/>
<path d="M0 0 C2.97 0 5.94 0 9 0 C9 14.19 9 28.38 9 43 C6.03 43 3.06 43 0 43 C0 28.81 0 14.62 0 0 Z " fill="#F1F3F6" transform="translate(245,164)"/>
<path d="M0 0 C1.39120471 0.00015906 2.78241534 0.00585033 4.17358398 0.01586914 C4.90463852 0.01728409 5.63569305 0.01869904 6.38890076 0.02015686 C8.73253406 0.02577131 11.07607313 0.03832617 13.41967773 0.05102539 C15.00496282 0.05603853 16.59024939 0.06060176 18.17553711 0.06469727 C22.06945383 0.07574542 25.96329979 0.09301967 29.85717773 0.11352539 C30.35217773 2.58852539 30.35217773 2.58852539 30.85717773 5.11352539 C19.63717773 5.11352539 8.41717773 5.11352539 -3.14282227 5.11352539 C-3.47282227 3.79352539 -3.80282227 2.47352539 -4.14282227 1.11352539 C-3.14282227 0.11352539 -3.14282227 0.11352539 0 0 Z " fill="#E9EAF5" transform="translate(186.142822265625,81.886474609375)"/>
<path d="M0 0 C5.875 0.875 5.875 0.875 7 2 C7.15135944 3.7872057 7.22175778 5.58161876 7.25 7.375 C7.28867187 8.84066406 7.28867187 8.84066406 7.328125 10.3359375 C7 13 7 13 5.61328125 14.86328125 C4 16 4 16 1.9375 15.8125 C0 15 0 15 -2 13 C-2.265625 10.72265625 -2.265625 10.72265625 -2.25 8.0625 C-2.25515625 7.18722656 -2.2603125 6.31195313 -2.265625 5.41015625 C-2 3 -2 3 0 0 Z " fill="#7B71E8" transform="translate(271,185)"/>
<path d="M0 0 C4.23567424 0.5059002 6.35934285 2.8935328 9.3125 5.8125 C10.66794922 7.12154297 10.66794922 7.12154297 12.05078125 8.45703125 C14 11 14 11 13.79296875 13.32421875 C13.53128906 13.87722656 13.26960937 14.43023437 13 15 C8.45640498 14.51491868 6.34054262 12.93391433 3.125 9.75 C2.32320312 8.98171875 1.52140625 8.2134375 0.6953125 7.421875 C-1 5 -1 5 -0.7578125 2.203125 C-0.50773438 1.47609375 -0.25765625 0.7490625 0 0 Z " fill="#ECEDF5" transform="translate(239,126)"/>
<path d="M0 0 C7.75 -0.125 7.75 -0.125 10 1 C10.042721 2.66611905 10.04063832 4.33382885 10 6 C9 7 9 7 6.93359375 7.09765625 C6.10988281 7.08605469 5.28617188 7.07445312 4.4375 7.0625 C3.61121094 7.05347656 2.78492188 7.04445312 1.93359375 7.03515625 C1.29550781 7.02355469 0.65742188 7.01195312 0 7 C0 4.69 0 2.38 0 0 Z " fill="#766AE8" transform="translate(219,191)"/>
<path d="M0 0 C1.37478516 0.01740234 1.37478516 0.01740234 2.77734375 0.03515625 C3.69644531 0.04417969 4.61554688 0.05320313 5.5625 0.0625 C6.27277344 0.07410156 6.98304688 0.08570313 7.71484375 0.09765625 C8.27734375 2.03515625 8.27734375 2.03515625 8.71484375 4.09765625 C7.71484375 5.09765625 7.71484375 5.09765625 5.4296875 5.1953125 C4.05490234 5.17791016 4.05490234 5.17791016 2.65234375 5.16015625 C1.73324219 5.15113281 0.81414062 5.14210937 -0.1328125 5.1328125 C-0.84308594 5.12121094 -1.55335938 5.10960937 -2.28515625 5.09765625 C-2.84765625 3.16015625 -2.84765625 3.16015625 -3.28515625 1.09765625 C-2.28515625 0.09765625 -2.28515625 0.09765625 0 0 Z " fill="#7D72E8" transform="translate(303.28515625,208.90234375)"/>
<path d="M0 0 C6.75 -0.125 6.75 -0.125 9 1 C8.67 2.65 8.34 4.3 8 6 C5.36 6 2.72 6 0 6 C0 4.02 0 2.04 0 0 Z " fill="#766BE8" transform="translate(219,176)"/>
<path d="M0 0 C3.53571429 0.53571429 3.53571429 0.53571429 5 2 C5.125 4.5 5.125 4.5 5 7 C4 8 4 8 1.5 8.125 C-1 8 -1 8 -2 7 C-2.1875 4.5625 -2.1875 4.5625 -2 2 C-1.34 1.34 -0.68 0.68 0 0 Z " fill="#7F75E9" transform="translate(304,184)"/>
<path d="M0 0 C1.65 0 3.3 0 5 0 C4.67 1.32 4.34 2.64 4 4 C2.35 4.33 0.7 4.66 -1 5 C-0.67 3.35 -0.34 1.7 0 0 Z " fill="#7469E7" transform="translate(127,196)"/>
<path d="M0 0 C1.32 1.32 2.64 2.64 4 4 C2 6 2 6 -1.625 6.125 C-2.73875 6.08375 -3.8525 6.0425 -5 6 C-4.01 5.34 -3.02 4.68 -2 4 C-0.80767387 1.94996045 -0.80767387 1.94996045 0 0 Z " fill="#8F86EB" transform="translate(254,136)"/>
<path d="M0 0 C2.475 0.495 2.475 0.495 5 1 C5 1.99 5 2.98 5 4 C3.35 3.67 1.7 3.34 0 3 C0 2.01 0 1.02 0 0 Z " fill="#887EEA" transform="translate(333,185)"/>
<path d="M0 0 C1.9375 0.3125 1.9375 0.3125 4 1 C4.33 1.99 4.66 2.98 5 4 C3.35 4 1.7 4 0 4 C0 2.68 0 1.36 0 0 Z " fill="#7C72E8" transform="translate(158,185)"/>
</svg>
