<?xml version="1.0" encoding="UTF-8"?>
<svg version="1.1" xmlns="http://www.w3.org/2000/svg" width="305" height="93">
<path d="M0 0 C100.65 0 201.3 0 305 0 C305 30.69 305 61.38 305 93 C204.35 93 103.7 93 0 93 C0 62.31 0 31.62 0 0 Z " fill="#936BE5" transform="translate(0,0)"/>
<path d="M0 0 C1.15822266 -0.01740234 1.15822266 -0.01740234 2.33984375 -0.03515625 C8.09425672 -0.00523729 8.09425672 -0.00523729 10.10009766 1.87451172 C10.56206543 2.36967285 11.0240332 2.86483398 11.5 3.375 C13.83707208 3.84144817 13.83707208 3.84144817 16.375 3.875 C20.49843665 4.18155287 23.24320491 4.62707914 26.5 7.375 C28.29678421 10.32380692 28.7547303 12.54156727 28.7746582 15.97241211 C28.78895622 17.32918312 28.78895622 17.32918312 28.80354309 18.71336365 C28.80263168 19.68322708 28.80172028 20.65309052 28.80078125 21.65234375 C28.80506638 22.65584366 28.8093515 23.65934357 28.81376648 24.69325256 C28.81950535 26.81396735 28.8200133 28.93470181 28.81567383 31.05541992 C28.81251505 34.29705445 28.83597489 37.53777523 28.86132812 40.77929688 C28.8636013 42.84114468 28.86430453 44.90299494 28.86328125 46.96484375 C28.872491 47.93268295 28.88170074 48.90052216 28.89118958 49.89768982 C28.83169888 58.56673867 28.83169888 58.56673867 25.5 62.375 C22.61041013 64.11819272 20.44182172 64.63176422 17.08618164 64.66552734 C15.78947289 64.6846669 15.78947289 64.6846669 14.46656799 64.70419312 C13.54045212 64.70641876 12.61433624 64.70864441 11.66015625 64.7109375 C10.22149452 64.7209227 10.22149452 64.7209227 8.75376892 64.73110962 C6.72722286 64.74122551 4.70064355 64.74592697 2.67407227 64.74560547 C-0.42292211 64.74997941 -3.51849199 64.78631252 -6.61523438 64.82421875 C-8.58593263 64.83008699 -10.55663765 64.83405634 -12.52734375 64.8359375 C-13.45143539 64.85030853 -14.37552704 64.86467957 -15.32762146 64.87948608 C-19.4325268 64.85037379 -21.88183712 64.72885433 -25.49829102 62.65869141 C-29.96006349 57.56838531 -29.80772422 52.63207428 -29.80078125 46.1640625 C-29.80506638 45.27770111 -29.8093515 44.39133972 -29.81376648 43.4781189 C-29.81949676 41.60716606 -29.82001965 39.73619094 -29.81567383 37.86523438 C-29.81251832 35.01653633 -29.83597359 32.16888197 -29.86132812 29.3203125 C-29.86360184 27.49739714 -29.86430428 25.674479 -29.86328125 23.8515625 C-29.872491 23.00655182 -29.88170074 22.16154114 -29.89118958 21.29092407 C-29.84947259 15.9049478 -29.03664513 12.15217482 -26.5 7.375 C-22.72322433 3.94156757 -18.69552323 3.95963915 -13.8046875 3.78125 C-11.4292458 3.60081777 -11.4292458 3.60081777 -10.10009766 1.87451172 C-7.32259071 -0.72839455 -3.60615366 -0.05418261 0 0 Z " fill="#F7F9FB" transform="translate(38.5,13.625)"/>
<path d="M0 0 C5.61 0 11.22 0 17 0 C17.66 1.32 18.32 2.64 19 4 C22.96 4 26.92 4 31 4 C31 2.68 31 1.36 31 0 C36.61 0 42.22 0 48 0 C48.04592888 4.21780188 48.08574749 8.43473513 48.10986328 12.65258789 C48.119917 14.08718812 48.13356194 15.52176789 48.15087891 16.95629883 C48.17515549 19.01909438 48.18648919 21.08161885 48.1953125 23.14453125 C48.21102295 25.00621948 48.21102295 25.00621948 48.22705078 26.90551758 C48 30 48 30 46 33 C42.09254453 34.30248516 38.35571302 34.1822166 34.28125 34.203125 C33.42696411 34.20882507 32.57267822 34.21452515 31.69250488 34.22039795 C29.88697547 34.22983911 28.08142889 34.23637842 26.27587891 34.24023438 C23.51043894 34.24996328 20.74573504 34.28100382 17.98046875 34.3125 C16.22656692 34.31902797 14.47265977 34.32427925 12.71875 34.328125 C11.47647644 34.3466452 11.47647644 34.3466452 10.20910645 34.36553955 C4.41226219 34.34297254 4.41226219 34.34297254 2.32043457 32.60272217 C-0.41951634 29.27701398 -0.1160617 26.694191 -0.09765625 22.4609375 C-0.09443359 21.15898438 -0.09121094 19.85703125 -0.08789062 18.515625 C-0.07953466 17.13541601 -0.07106971 15.75520768 -0.0625 14.375 C-0.05748501 12.98698074 -0.0529221 11.59895978 -0.04882812 10.2109375 C-0.03700985 6.80727327 -0.0190739 3.4036313 0 0 Z " fill="#8D61E3" transform="translate(14,39)"/>
<path d="M0 0 C14.73076923 0 14.73076923 0 19 3 C21 5 21 5 21.3125 8.3125 C20.98867205 12.13366982 20.22414284 13.94180359 18 17 C18.66 17.474375 19.32 17.94875 20 18.4375 C22.55118349 21.70620384 22.64013378 23.81423796 22.453125 27.875 C22 30 22 30 19.8125 32.5 C13.28454641 35.98157525 7.59266699 35 0 35 C0 23.45 0 11.9 0 0 Z " fill="#F3F4FA" transform="translate(179,24)"/>
<path d="M0 0 C1.04027344 -0.00773437 2.08054687 -0.01546875 3.15234375 -0.0234375 C6.42093075 0.42407374 7.51587473 1.39429145 10.0625 3.375 C12.51156683 3.7997498 12.51156683 3.7997498 15.0625 3.8125 C18.35117496 4.06957931 19.83520008 4.23429053 22.6875 6 C24.0625 8.375 24.0625 8.375 24.0625 15.375 C8.5525 15.375 -6.9575 15.375 -22.9375 15.375 C-22.9375 7.375 -22.9375 7.375 -21.78125 5.40625 C-18.55035777 3.59914079 -15.15642532 3.89819114 -11.53125 3.78125 C-8.8961872 3.63367441 -8.8961872 3.63367441 -7.46484375 1.8671875 C-5.1493806 -0.39497854 -3.1620187 -0.02345131 0 0 Z " fill="#9066E4" transform="translate(37.9375,18.625)"/>
<path d="M0 0 C0.78246094 -0.01417969 1.56492187 -0.02835938 2.37109375 -0.04296875 C4.5625 0.1875 4.5625 0.1875 7.5625 2.1875 C7.8925 1.5275 8.2225 0.8675 8.5625 0.1875 C9.5525 0.1875 10.5425 0.1875 11.5625 0.1875 C11.64975659 4.4165362 11.7029789 8.64534012 11.75 12.875 C11.77513672 14.07318359 11.80027344 15.27136719 11.82617188 16.50585938 C11.83583984 17.66279297 11.84550781 18.81972656 11.85546875 20.01171875 C11.8711792 21.07479248 11.88688965 22.13786621 11.90307617 23.2331543 C11.39932798 27.60294416 9.73220868 30.21831281 6.375 33 C2.71804426 34.54404798 -0.55757184 34.7774306 -4.4375 34.1875 C-7.9375 32.6875 -7.9375 32.6875 -10.4375 31.1875 C-10.4375 30.1975 -10.4375 29.2075 -10.4375 28.1875 C-9.4475 28.1875 -8.4575 28.1875 -7.4375 28.1875 C-6.7775 28.8475 -6.1175 29.5075 -5.4375 30.1875 C-1.17204092 30.89566502 2.44075567 30.89885006 6.125 28.5625 C7.9250104 25.58856977 7.87318741 23.60506151 7.5625 20.1875 C6.9025 20.8475 6.2425 21.5075 5.5625 22.1875 C1.85018066 22.75540715 -1.72278389 22.72353407 -5.4375 22.1875 C-8.85061667 19.66179367 -10.10387768 18.18836696 -11.4375 14.1875 C-12.10361433 8.30349006 -12.10361433 8.30349006 -10.390625 5.43359375 C-7.06782657 1.37782508 -5.12273622 0.04205859 0 0 Z " fill="#F5F6FB" transform="translate(259.4375,35.8125)"/>
<path d="M0 0 C3.0625 2.4375 3.0625 2.4375 5 5 C5.33 5.33 5.66 5.66 6 6 C6.53718586 10.07493843 6.91195544 14.23242614 4.98828125 17.9609375 C2.84979723 20.59390581 1.23227732 21.92257423 -2 23 C-6.74094816 23.46632277 -9.6449125 23.73805951 -13.4375 20.6875 C-16.92518761 17.02968129 -17.39638535 14.08521456 -17.359375 9.0703125 C-16.71820971 5.3766429 -14.64068388 3.57781045 -12 1 C-8.28803409 -0.85598295 -4.04117386 -0.59092637 0 0 Z " fill="#9772E6" transform="translate(236,36)"/>
<path d="M0 0 C0.75925781 -0.04898438 1.51851562 -0.09796875 2.30078125 -0.1484375 C6.08232751 0.68090325 7.42868689 2.2721041 9.6875 5.375 C10.27618119 8.50831488 10.16281926 11.51377697 10 14.6875 C9.97744141 15.52345703 9.95488281 16.35941406 9.93164062 17.22070312 C9.8730061 19.27291149 9.78333215 21.32419202 9.6875 23.375 C8.3675 22.715 7.0475 22.055 5.6875 21.375 C5.0275 22.035 4.3675 22.695 3.6875 23.375 C-0.33378169 23.69929691 -3.10625776 23.88765295 -6.8125 22.3125 C-8.3125 20.375 -8.3125 20.375 -8.9375 16.9375 C-8.3125 13.375 -8.3125 13.375 -5.875 10.9375 C-1.47874762 9.00931913 1.96977405 8.99758192 6.6875 9.375 C6.0275 7.725 5.3675 6.075 4.6875 4.375 C2.8003125 4.3440625 2.8003125 4.3440625 0.875 4.3125 C0.16730469 4.30089844 -0.54039063 4.28929687 -1.26953125 4.27734375 C-3.51555461 4.29236783 -3.51555461 4.29236783 -6.3125 5.375 C-6.3125 4.055 -6.3125 2.735 -6.3125 1.375 C-4.04001762 0.23875881 -2.52947236 0.11053157 0 0 Z " fill="#F2F3FA" transform="translate(118.3125,35.625)"/>
<path d="M0 0 C6.93 0 13.86 0 21 0 C21 0.99 21 1.98 21 3 C15.06 3 9.12 3 3 3 C3 6.96 3 10.92 3 15 C8.61 15 14.22 15 20 15 C20 15.99 20 16.98 20 18 C14.39 18 8.78 18 3 18 C3 22.62 3 27.24 3 32 C8.94 32 14.88 32 21 32 C21 32.99 21 33.98 21 35 C14.07 35 7.14 35 0 35 C0 23.45 0 11.9 0 0 Z " fill="#F1F0F9" transform="translate(83,24)"/>
<path d="M0 0 C4.4297642 0.79102932 5.89210172 1.98974785 8.5 5.625 C9.21235686 9.4242366 8.81263988 11.06224821 6.9375 14.4375 C3.73003157 17.31599731 1.7850666 17.70017661 -2.5 17.625 C-5.30189446 15.85858828 -7.01524911 14.59450178 -8.5 11.625 C-9.03507099 7.6119676 -8.83051628 6.08571967 -6.4375 2.75 C-3.5 0.625 -3.5 0.625 0 0 Z " fill="#9875E6" transform="translate(259.5,38.375)"/>
<path d="M0 0 C10.04995766 -0.48433531 10.04995766 -0.48433531 14.1875 1.625 C16 4 16 4 16.5625 7.0625 C16 10 16 10 14.1875 11.8125 C10.76877385 13.66837991 8.1378783 14.11794027 4.3125 14.0625 C2.889375 14.041875 1.46625 14.02125 0 14 C0 9.38 0 4.76 0 0 Z " fill="#9975E7" transform="translate(182,42)"/>
<path d="M0 0 C3.0625 2.4375 3.0625 2.4375 5 5 C5.33 5.33 5.66 5.66 6 6 C6.53718586 10.07493843 6.91195544 14.23242614 4.98828125 17.9609375 C2.84979723 20.59390581 1.23227732 21.92257423 -2 23 C-6.74094816 23.46632277 -9.6449125 23.73805951 -13.4375 20.6875 C-16.92518761 17.02968129 -17.39638535 14.08521456 -17.359375 9.0703125 C-16.71820971 5.3766429 -14.64068388 3.57781045 -12 1 C-8.28803409 -0.85598295 -4.04117386 -0.59092637 0 0 Z M-14 8 C-14.7878128 12.4117517 -14.52975133 14.22192774 -12 17.9375 C-7.83082591 20.80380719 -5.98902441 20.79190864 -1 20 C1.6483191 17.88134472 2.73807669 16.37782575 3.375 13.02734375 C3.57568891 9.67207596 3.23027695 7.38379492 1.5 4.5 C-4.69562167 0.782627 -10.0531018 2.20299327 -14 8 Z " fill="#F3F5FB" transform="translate(236,36)"/>
<path d="M0 0 C1.796875 0.02734375 1.796875 0.02734375 4 1 C5.28373121 3.54685205 6.29761044 5.89726697 7.25 8.5625 C7.518125 9.27341797 7.78625 9.98433594 8.0625 10.71679688 C8.7224131 12.47263709 9.36306641 14.23569397 10 16 C12.58887549 12.11668676 13.9644675 7.97946485 15.5859375 3.6171875 C17 1 17 1 19.08837891 0.33642578 C19.71921387 0.22540527 20.35004883 0.11438477 21 0 C18.77575554 6.91511898 16.23630196 13.64712883 13.5 20.375 C13.10941406 21.35855469 12.71882812 22.34210937 12.31640625 23.35546875 C11.93355469 24.29777344 11.55070313 25.24007812 11.15625 26.2109375 C10.81400391 27.05962402 10.47175781 27.90831055 10.11914062 28.78271484 C8.97324122 31.05301554 8.00653939 32.4449946 6 34 C2.8125 34.1875 2.8125 34.1875 0 34 C0 33.01 0 32.02 0 31 C1.423125 30.6596875 1.423125 30.6596875 2.875 30.3125 C6.12017419 29.30403537 6.12017419 29.30403537 7.4375 26.6875 C8.66537167 20.82100202 5.70662077 15.61011066 3.4375 10.3125 C2.78716855 8.78912085 2.13987884 7.26443845 1.49609375 5.73828125 C1.20919678 5.06837158 0.9222998 4.39846191 0.62670898 3.70825195 C0 2 0 2 0 0 Z " fill="#F1F2FA" transform="translate(153,36)"/>
<path d="M0 0 C0.7734375 -0.00773437 1.546875 -0.01546875 2.34375 -0.0234375 C4.98245826 0.4641499 5.89157252 1.26136133 7.5 3.375 C7.5 4.035 7.5 4.695 7.5 5.375 C6.984375 5.21 6.46875 5.045 5.9375 4.875 C2.76636124 4.22451 -0.27218334 4.3129266 -3.5 4.375 C-3.83 5.695 -4.16 7.015 -4.5 8.375 C-3.81292969 8.55675781 -3.12585938 8.73851562 -2.41796875 8.92578125 C-1.51691406 9.17714844 -0.61585938 9.42851563 0.3125 9.6875 C1.20582031 9.93113281 2.09914063 10.17476562 3.01953125 10.42578125 C5.58692027 11.4082624 6.82526203 12.22176546 8.5 14.375 C9.08006212 17.60677469 8.79268598 18.92377578 7 21.6875 C3.56741385 24.00449565 0.46897275 24.05876362 -3.5 23.375 C-6.5 21.875 -6.5 21.875 -8.5 20.375 C-8.005 18.89 -8.005 18.89 -7.5 17.375 C-6.984375 17.705 -6.46875 18.035 -5.9375 18.375 C-2.71973488 19.69510877 0.0570528 19.50742105 3.5 19.375 C3.83 18.055 4.16 16.735 4.5 15.375 C3.80132812 15.10945313 3.10265625 14.84390625 2.3828125 14.5703125 C1.47273438 14.21710937 0.56265625 13.86390625 -0.375 13.5 C-1.27992188 13.15195312 -2.18484375 12.80390625 -3.1171875 12.4453125 C-5.5 11.375 -5.5 11.375 -7.5 9.375 C-8.05829517 4.12702536 -8.05829517 4.12702536 -6.26171875 1.70703125 C-4.03861647 0.02614904 -2.76393378 -0.02763934 0 0 Z " fill="#F2F4FA" transform="translate(284.5,35.625)"/>
<path d="M0 0 C0.99 0.66 1.98 1.32 3 2 C3 2.99 3 3.98 3 5 C2.443125 4.855625 1.88625 4.71125 1.3125 4.5625 C-3.42442992 3.08246474 -3.42442992 3.08246474 -8 4 C-7.88528742 5.9506287 -7.88528742 5.9506287 -7 8 C-4.72788324 9.32283857 -4.72788324 9.32283857 -2 10.1875 C2.95364238 11.95364238 2.95364238 11.95364238 4 13 C4.38721999 16.48497993 4.39387281 18.37636806 2.5 21.375 C-0.37162388 23.24155552 -2.60871992 23.61962512 -6.02734375 23.47265625 C-9.30885632 22.68639284 -10.95783449 20.55270688 -13 18 C-11.68 18 -10.36 18 -9 18 C-8.67 18.33 -8.34 18.66 -8 19 C-5.66702567 19.04092937 -3.33294775 19.04241723 -1 19 C-0.67 17.68 -0.34 16.36 0 15 C-0.69867188 14.74605469 -1.39734375 14.49210937 -2.1171875 14.23046875 C-3.48230469 13.71419922 -3.48230469 13.71419922 -4.875 13.1875 C-5.77992188 12.85105469 -6.68484375 12.51460937 -7.6171875 12.16796875 C-10 11 -10 11 -12 8 C-12.375 5.5 -12.375 5.5 -12 3 C-8.70240087 -0.98459895 -4.7715233 -0.37869233 0 0 Z " fill="#F3F4FA" transform="translate(146,36)"/>
<path d="M0 0 C7.97122862 -0.35692068 7.97122862 -0.35692068 12.0625 1.0625 C14 3 14 3 14.3125 6.6875 C14.1578125 8.3271875 14.1578125 8.3271875 14 10 C10.78817851 11.90608098 8.46117397 12.22266247 4.75 12.125 C3.1825 12.08375 1.615 12.0425 0 12 C0 8.04 0 4.08 0 0 Z " fill="#9977E7" transform="translate(182,27)"/>
<path d="M0 0 C0.99 0 1.98 0 3 0 C3 12.21 3 24.42 3 37 C2.01 37 1.02 37 0 37 C0 24.79 0 12.58 0 0 Z " fill="#F7FAFB" transform="translate(209,22)"/>
<path d="M0 0 C-0.75 6.75 -0.75 6.75 -3 9 C-9.32258065 9.33870968 -9.32258065 9.33870968 -12 8 C-12.25 5.6875 -12.25 5.6875 -12 3 C-8.70976944 -0.97569526 -4.75485572 -0.23774279 0 0 Z " fill="#9670E7" transform="translate(125,47)"/>
<path d="M0 0 C2.0625 0.4375 2.0625 0.4375 4 1 C3.4352699 4.90829085 1.57868029 6.89920223 -1.0625 9.75 C-2.16271484 10.94882813 -2.16271484 10.94882813 -3.28515625 12.171875 C-3.85105469 12.77515625 -4.41695312 13.3784375 -5 14 C-6.32 13.67 -7.64 13.34 -9 13 C-8.41273335 9.37036582 -6.95905107 7.49830783 -4.5 4.8125 C-3.8709375 4.11769531 -3.241875 3.42289063 -2.59375 2.70703125 C-1.74091381 1.79357681 -0.88366526 0.88366526 0 0 Z " fill="#F0F1F9" transform="translate(55,56)"/>
</svg>
